<?xml version="1.0" standalone="no"?>
<!DOCTYPE svg PUBLIC "-//W3C//DTD SVG 20010904//EN"
 "http://www.w3.org/TR/2001/REC-SVG-20010904/DTD/svg10.dtd">
<svg version="1.0" xmlns="http://www.w3.org/2000/svg"
 width="100.000000pt" height="100.000000pt" viewBox="0 0 100.000000 100.000000"
 preserveAspectRatio="xMidYMid meet">
<metadata>
Created by potrace 1.11, written by Peter Selinger 2001-2013
</metadata>
<g transform="translate(0.000000,100.000000) scale(0.100000,-0.100000)"
fill="#000000" stroke="none">
<path d="M1 793 c1 -150 4 -197 10 -169 39 165 200 326 365 365 28 6 -19 9
-168 10 l-208 1 1 -207z"/>
<path d="M639 984 c162 -43 312 -197 350 -360 6 -28 9 19 10 169 l1 207 -207
-1 c-201 0 -206 -1 -154 -15z"/>
<path d="M382 974 c-177 -47 -310 -182 -357 -359 -66 -255 96 -521 360 -590
341 -88 667 228 594 577 -55 263 -340 441 -597 372z m158 -44 c0 -28 -19 -44
-21 -17 0 10 -2 10 -6 0 -9 -24 -29 -13 -27 15 1 15 3 28 3 30 1 1 12 2 26 2
21 0 25 -5 25 -30z m-112 -5 c15 -33 15 -38 -2 -32 -7 3 -19 0 -25 -6 -8 -8
-11 -1 -11 26 0 44 21 50 38 12z m231 -18 c-9 -20 -9 -20 4 -5 8 11 21 15 35
12 18 -5 19 -9 9 -32 -6 -15 -12 -28 -13 -30 -3 -4 -64 27 -64 33 0 15 24 53
31 49 5 -3 4 -15 -2 -27z m-339 -2 c0 -9 7 -18 15 -21 8 -4 13 -10 10 -15 -3
-4 -12 -6 -20 -2 -9 3 -15 -1 -15 -8 -1 -9 -6 -7 -15 5 -17 22 -20 50 -5 41 6
-3 10 -1 10 4 0 6 5 11 10 11 6 0 10 -7 10 -15z m252 -36 c153 -32 265 -146
298 -302 16 -79 4 -156 -37 -237 -137 -274 -528 -274 -668 1 -111 217 15 482
255 535 71 16 88 16 152 3z m208 -9 c0 -5 8 -10 18 -10 16 -1 16 -1 0 -11 -10
-5 -18 -17 -18 -24 0 -8 -4 -15 -10 -15 -5 0 -10 7 -10 15 0 9 -6 12 -17 8
-12 -5 -14 -3 -8 8 21 37 45 52 45 29z m-552 -14 c-10 -7 -18 -16 -18 -20 0
-11 28 -6 33 7 3 6 6 2 6 -10 1 -31 -45 -33 -54 -3 -8 26 1 40 28 40 20 -1 21
-2 5 -14z m648 -78 c9 -28 -20 -52 -47 -37 -22 11 -24 30 -7 47 19 19 46 14
54 -10z m-726 -3 c-7 -9 -10 -18 -6 -22 3 -4 13 2 21 13 14 18 14 18 15 -4 0
-29 -27 -40 -47 -19 -19 18 -11 47 13 47 14 0 14 -3 4 -15z m-20 -122 c0 -7
-4 -13 -10 -13 -5 0 -10 4 -10 9 0 4 -11 6 -25 3 -15 -2 -25 0 -25 7 0 6 6 11
14 11 10 0 12 7 9 23 l-6 22 27 -24 c14 -14 26 -30 26 -38z m799 28 c8 -15 5
-20 -16 -30 -18 -8 -29 -9 -37 -1 -7 7 -5 10 6 10 9 0 19 4 22 9 3 4 -6 6 -19
3 -14 -2 -25 0 -25 6 0 6 10 13 23 15 12 2 25 5 29 6 4 0 12 -7 17 -18z m-849
-96 c7 -8 9 -15 4 -15 -5 0 -2 -4 6 -10 21 -13 7 -22 -24 -14 -15 4 -26 13
-26 23 0 32 20 40 40 16z m861 5 c27 0 23 -25 -6 -38 -35 -16 -37 -15 -30 8 4
11 2 20 -4 20 -6 0 -11 5 -11 11 0 6 7 8 16 5 9 -3 24 -6 35 -6z m-843 -157
c5 -18 -28 -29 -38 -12 -5 7 -6 17 -3 22 7 12 35 5 41 -10z m845 11 c9 -10 -4
-34 -18 -34 -17 0 -28 17 -20 30 7 11 28 13 38 4z m-807 -119 c-3 -9 0 -15 9
-15 28 0 15 -18 -15 -22 -38 -6 -46 5 -23 31 22 23 37 27 29 6z m759 3 c25
-11 34 -28 15 -28 -5 0 -10 -6 -10 -14 0 -18 -39 -9 -47 10 -5 14 2 44 11 44
3 0 17 -5 31 -12z m-695 -128 c-30 -23 -40 -17 -15 10 10 11 13 20 7 20 -6 0
-14 -4 -17 -10 -3 -5 -13 -10 -22 -10 -13 0 -12 5 7 25 l24 25 20 -20 21 -21
-25 -19z m660 18 c0 -6 -7 -7 -16 -4 -11 4 -15 2 -11 -8 9 -22 -3 -26 -29 -9
-27 17 -33 38 -8 29 11 -4 15 -2 11 8 -3 8 -3 17 0 20 7 7 53 -24 53 -36z
m-582 -40 c20 -20 13 -36 -18 -40 -39 -6 -43 -1 -22 28 20 27 24 28 40 12z
m485 -12 c18 -27 11 -42 -11 -23 -13 10 -15 9 -9 -5 11 -31 -9 -28 -27 4 -18
30 -18 30 3 23 16 -5 20 -3 15 9 -9 25 12 19 29 -8z m-393 -67 c0 -28 -13 -39
-25 -19 -3 5 -12 7 -20 3 -21 -8 -18 7 6 34 26 27 39 22 39 -18z m299 14 c10
-21 9 -28 -1 -34 -21 -14 -28 -11 -40 17 -10 21 -9 27 3 35 21 13 25 11 38
-18z m-194 -34 c0 -19 -6 -25 -27 -27 -22 -3 -28 1 -28 17 0 37 10 50 33 42
14 -5 22 -17 22 -32z m105 0 c0 -37 -19 -39 -21 -1 l-2 27 -4 -27 c-2 -16 -10
-28 -17 -28 -19 0 -7 58 13 63 25 5 31 -1 31 -34z"/>
<path d="M383 842 c-100 -36 -171 -101 -216 -199 -18 -39 -22 -66 -22 -143 0
-82 4 -103 27 -152 34 -73 103 -142 176 -176 83 -39 221 -39 304 0 73 34 142
103 176 176 23 49 27 70 27 152 0 82 -4 103 -27 152 -34 73 -104 143 -176 176
-76 35 -194 41 -269 14z m157 -39 c8 -3 27 -5 42 -4 16 2 35 -6 47 -18 12 -12
28 -21 36 -21 8 0 15 -5 15 -11 0 -5 -4 -7 -10 -4 -5 3 -18 1 -27 -5 -15 -9
-11 -10 19 -6 31 4 39 1 52 -19 20 -31 20 -46 1 -39 -20 8 -19 -10 2 -27 15
-12 16 -12 8 1 -5 10 -5 12 3 5 6 -5 12 -23 13 -40 2 -16 9 -39 16 -50 15 -23
17 -122 3 -127 -5 -1 -11 -22 -12 -45 -1 -26 -6 -43 -13 -43 -7 0 -20 -15 -28
-32 -9 -18 -20 -31 -24 -28 -4 2 -14 -8 -21 -23 -7 -15 -22 -33 -33 -40 -10
-6 -19 -17 -19 -23 0 -6 -11 -11 -25 -11 -28 0 -33 12 -10 21 17 6 20 42 4 52
-6 3 -9 15 -6 25 5 20 -7 26 -18 9 -9 -14 -78 -13 -93 2 -16 16 -15 48 1 48 6
1 -3 7 -20 15 -25 10 -33 20 -33 39 0 20 4 23 22 18 15 -4 19 -2 14 7 -5 7 -1
20 9 31 11 13 15 32 13 66 -3 43 -6 48 -33 57 -52 17 -57 26 -34 59 18 25 19
29 5 26 -9 -2 -22 8 -29 22 -11 20 -20 25 -47 23 -46 -2 -62 -26 -58 -88 2
-36 -1 -54 -13 -66 -21 -21 -18 -92 5 -138 9 -17 14 -36 11 -41 -6 -9 10 -32
53 -76 12 -13 22 -28 22 -34 0 -5 5 -10 10 -10 6 0 10 -7 10 -15 0 -8 7 -15
15 -15 8 0 15 -5 15 -11 0 -5 5 -7 10 -4 6 4 22 -1 35 -9 14 -9 25 -12 25 -6
0 5 5 10 11 10 6 0 9 -6 6 -12 -2 -7 -13 -12 -23 -10 -10 1 -29 3 -41 4 -22 0
-83 58 -83 77 0 5 -9 13 -20 16 -11 3 -20 13 -20 21 0 8 -4 14 -10 14 -5 0
-10 7 -10 15 0 8 -5 14 -12 13 -7 -2 -13 14 -15 42 -2 25 -8 47 -13 48 -16 6
-12 118 4 131 10 9 13 26 10 59 -4 39 0 55 21 87 25 38 63 65 92 65 7 0 13 5
13 11 0 6 14 9 33 8 17 -2 41 2 51 8 18 10 41 8 76 -4z m-100 -269 c0 -14 -3
-15 -17 -3 -10 7 -20 15 -22 16 -2 2 5 3 17 3 14 0 22 -6 22 -16z m110 -345
c0 -4 -7 -6 -15 -3 -8 4 -15 1 -15 -5 0 -6 -7 -11 -15 -11 -20 0 -19 10 2 25
18 13 43 10 43 -6z"/>
<path d="M485 764 c-19 -19 -19 -35 0 -60 14 -19 14 -19 15 1 0 11 7 30 15 42
13 18 13 22 0 27 -8 3 -21 -2 -30 -10z"/>
<path d="M590 652 c0 -5 9 -17 20 -27 22 -20 26 -14 10 16 -11 19 -30 26 -30
11z"/>
<path d="M560 560 c0 -5 4 -10 9 -10 6 0 13 5 16 10 3 6 -1 10 -9 10 -9 0 -16
-4 -16 -10z"/>
<path d="M632 460 c0 -14 2 -19 5 -12 2 6 2 18 0 25 -3 6 -5 1 -5 -13z"/>
<path d="M506 441 c-35 -5 -38 -7 -23 -20 20 -16 22 -47 5 -54 -7 -3 1 -5 17
-5 17 0 24 2 18 5 -21 8 -15 49 10 66 12 9 20 16 17 15 -3 0 -23 -4 -44 -7z"/>
<path d="M835 761 c-6 -11 9 -23 19 -14 9 9 7 23 -3 23 -6 0 -12 -4 -16 -9z"/>
<path d="M1 208 l-1 -208 203 0 202 1 -67 22 c-158 54 -290 197 -327 353 -6
28 -9 -19 -10 -168z"/>
<path d="M982 352 c-37 -143 -164 -273 -321 -328 l-66 -24 203 0 202 0 0 200
c0 110 -1 200 -3 200 -2 0 -9 -21 -15 -48z"/>
</g>
</svg>
